<svg id="Layer_1" data-name="Layer 1" xmlns="http://www.w3.org/2000/svg" viewBox="0 0 143.68 143.68"><defs><style>.cls-2{fill:#f3b81a}</style></defs><g opacity=".6"><path class="cls-2" d="M20.88 61.6h9L31 65.25h2.62V69h2v-3.71h2.77v1.46h2.22v-2.06h3.56v1.67h2.06v-1.67h1.43v-1.27h2.61v2.7h1.19v4.67h1.19v-2h4.75v2.3h4.2v-7.27h5.23v2.54h2.61L73 57.93l3.23 5.34h4.75v3.32l15.86 3.32c.28 3.68.57 7.35.85 11h8.48l.79 3.64h1.66v-1.64h6.1l.56-1.19h1.18v4.2h3v4.83h3l-2.38 2.93-2.22.64v6h12.44l2.45 9.35h3.49v9.9h-7.05v1.26h-4.68l-1.26-1.66h-7.92v3.64h-11v2.62h2.21v1.74h-8.42l1.66 5.15h-3.64v-1.27h-6.42v1.27h-9.27v-4.52H76.1v-2.45H74v-2.54h-3.45v2h-1.9v-1.5h-2.93v2.06h-1.59v-1.74h-3.24v2.85h-4.68v4.2l-4.43-2.06V125h7.68v-1.19h-3.33v-3.16h2.06l.08-2.06h1.59l2.22-2.22v-1.9l3.48-1.9-2.93-3.57h-4.44v1.11H55.5l-.55-1-1.43-.11v-2.53h-1.66v5.86h-2.62v1h-1.66v2.53l-.87.8-4.83-5.66h-1.75l-4.35 6.74H29.2l1.59-22.18h-4.52v4H19V87.9h1.75v-3.17h-1.37V79.9l2.69 1.82h7.13V67.94l-3.4-4.36z"/><path class="cls-2" d="M20.88 64.18h9l-2.48-1.89 1.11 3.64A2.63 2.63 0 0031 67.82h2.62l-2.58-2.57V69a2.62 2.62 0 002.58 2.58h2A2.61 2.61 0 0038.19 69v-3.71l-2.57 2.57h2.77l-2.57-2.57v1.46a2.62 2.62 0 002.57 2.58h2.22a2.61 2.61 0 002.57-2.58v-2.06l-2.57 2.58h3.56l-2.57-2.58v1.67a2.61 2.61 0 002.57 2.57h2.06a2.62 2.62 0 002.58-2.57v-1.67l-2.58 2.58h1.43a2.61 2.61 0 002.57-2.58v-1.27L47.66 66h2.61l-2.57-2.58v2.7a2.61 2.61 0 002.57 2.57h1.19l-2.57-2.57v4.67a2.62 2.62 0 002.57 2.58h1.19a2.61 2.61 0 002.57-2.58v-2l-2.57 2.58h4.75l-2.57-2.58v2.3a2.61 2.61 0 002.57 2.57h4.2a2.62 2.62 0 002.58-2.57v-7.27L61.6 66.4h5.23l-2.58-2.58v2.54a2.61 2.61 0 002.58 2.57h2.61A2.69 2.69 0 0071.93 67l3.51-8.43-4.71.62c1.37 2.27 2.63 6.24 5.56 6.61a37.81 37.81 0 004.64 0l-2.58-2.57v3.32a2.63 2.63 0 001.89 2.49L96.1 72.4l-1.89-2.49.86 11a2.62 2.62 0 002.57 2.58h8.48l-2.49-1.89.8 3.64a2.58 2.58 0 002.48 1.89h1.66a2.61 2.61 0 002.58-2.58v-1.64l-2.58 2.58h6.1a2.56 2.56 0 002.23-1.28l.55-1.19-2.22 1.28h1.18l-2.57-2.58v4.2a2.62 2.62 0 002.57 2.58h3l-2.58-2.58v4.83a2.61 2.61 0 002.58 2.58h3l-1.83-4.4c-.47.59-1.91 1.83-2.07 2.56-.1.45 1-.11.26-.13a7.09 7.09 0 00-1.64.47 2.64 2.64 0 00-1.89 2.49v6a2.61 2.61 0 002.57 2.57h12.44l-2.46-1.89 2.46 9.35a2.62 2.62 0 002.48 1.89h3.49l-2.58-2.57v9.9l2.58-2.58h-7.05a2.62 2.62 0 00-2.58 2.58v1.26l2.58-2.57h-4.68l2.23 1.27c-1.45-1.89-2.29-2.9-4.74-2.93h-6.67a2.61 2.61 0 00-2.58 2.57v3.64l2.58-2.57h-11a2.61 2.61 0 00-2.58 2.57v2.62a2.61 2.61 0 002.57 2.57h2.21l-2.57-2.57v1.74l2.57-2.57h-8.39a2.6 2.6 0 00-2.49 3.26L97.3 133l2.48-3.26h-3.64l2.57 2.58v-1.27a2.61 2.61 0 00-2.57-2.57h-6.42a2.62 2.62 0 00-2.58 2.57v1.27l2.58-2.58h-9.27l2.55 2.6v-4.52a2.61 2.61 0 00-2.58-2.57H76.1l2.57 2.57v-2.45a2.62 2.62 0 00-2.57-2.58H74l2.57 2.58v-2.54a2.61 2.61 0 00-2.57-2.57h-3.45a2.61 2.61 0 00-2.55 2.57v2l2.57-2.57h-1.9l2.58 2.57v-1.5a2.62 2.62 0 00-2.58-2.58h-2.95a2.62 2.62 0 00-2.58 2.58v2.06l2.58-2.58h-1.59l2.58 2.58v-1.74a2.61 2.61 0 00-2.58-2.58h-3.24a2.61 2.61 0 00-2.58 2.58v2.85l2.58-2.58h-4.68a2.61 2.61 0 00-2.57 2.58v4.2l3.87-2.23-4.43-2.06 1.27 2.23V125l-2.57 2.58h7.68A2.62 2.62 0 0062 125v-1.19a2.61 2.61 0 00-2.58-2.57h-3.29l2.58 2.57v-3.16l-2.58 2.57h2.06a2.62 2.62 0 002.58-2.57l.08-2.06-2.58 2.57c4 0 6.38-2.85 6.38-6.69l-1.27 2.22 3.48-1.9a2.61 2.61 0 00.52-4c-1-1.23-2-3.18-3.45-4s-4.07-.35-5.74-.35a2.61 2.61 0 00-2.57 2.56v1.11l2.57-2.57H55.5l2.22 1.27c-1-1.94-2.1-2.27-4.2-2.38L56.1 109v-2.53a2.62 2.62 0 00-2.58-2.58h-1.66a2.61 2.61 0 00-2.58 2.58v5.86l2.58-2.58h-2.62a2.61 2.61 0 00-2.57 2.58v1l2.57-2.58h-1.66a2.62 2.62 0 00-2.58 2.58v2.53l.76-1.82-.87.79h3.64c-2.17-2.56-4.31-6.85-8.12-6.45-3.28.34-5.24 5.51-6.86 8l2.23-1.28H29.2l2.58 2.58 1.58-22.18a2.6 2.6 0 00-2.57-2.58h-4.52a2.61 2.61 0 00-2.57 2.58v4l2.57-2.58H19l2.58 2.58V87.9L19 90.48h1.75a2.61 2.61 0 002.55-2.58v-3.17a2.61 2.61 0 00-2.57-2.57h-1.35L22 84.73V79.9l-3.88 2.22c1.58 1.07 2.73 2 4.65 2.18 2.13.16 4.33 0 6.47 0a2.62 2.62 0 002.58-2.58c0-4.44.63-9.37 0-13.76-.28-1.95-2.61-4.72-4-6s-4.22-2-6.18-2.82c-3.07-1.24-4.41 3.74-1.37 5l2.46 1c.54.22 1.12.51 1.68.68 1.35.4-.17.34-.31-.28.3 1.33 2.48 3.17 3.35 4.28L26.7 68v13.72l2.57-2.57c-1.91 0-3.83-.08-5.74 0-.15 0-1-.12-1.08 0 0 0 .84.66.57.06s-1.71-1.15-2.27-1.53a2.6 2.6 0 00-3.95 2.22v4.83a2.61 2.61 0 002.58 2.58h1.35l-2.58-2.58v3.17l2.58-2.57H19a2.61 2.61 0 00-2.57 2.57v11.57A2.61 2.61 0 0019 102h7.29a2.62 2.62 0 002.58-2.57v-4L26.29 98h4.52l-2.58-2.57-1.58 22.18a2.6 2.6 0 002.57 2.57c2.27 0 6.61.81 8.4-.75 2-1.75 3.32-5 4.76-7.26l-2.23 1.28h1.75l-1.83-.76 4.84 5.71a2.62 2.62 0 003.64 0c1.74-1.58 1.62-2.93 1.62-5.15l-2.57 2.57h1.66a2.61 2.61 0 002.58-2.57v-1l-2.58 2.57h2.62a2.61 2.61 0 002.57-2.57v-5.86L51.86 109h1.66l-2.58-2.57V109a2.64 2.64 0 002.58 2.58l1.43.08-2.23-1.28.56 1a2.57 2.57 0 002.22 1.28h2.69a2.61 2.61 0 002.58-2.58V109l-2.58 2.58h4.44l-1.82-.76 2.93 3.57.52-4-3.48 1.9a2.58 2.58 0 00-1.28 2.23v1.9l.75-1.82-2.25 2.14 1.82-.76h-1.55a2.62 2.62 0 00-2.57 2.58l-.08 2.06 2.57-2.62h-2.06a2.61 2.61 0 00-2.57 2.58v3.16a2.61 2.61 0 002.57 2.58h3.33l-2.57-2.58V125l2.57-2.57h-7.68A2.62 2.62 0 0049.2 125v3.65a2.53 2.53 0 001.28 2.22l4.43 2.06a2.61 2.61 0 003.88-2.22v-4.2l-2.58 2.57h4.68a2.61 2.61 0 002.57-2.57v-2.85l-2.57 2.57h3.24l-2.57-2.57v1.74a2.61 2.61 0 002.57 2.57h1.59a2.61 2.61 0 002.57-2.57v-2.06l-2.57 2.58h2.93l-2.58-2.58v1.5a2.61 2.61 0 002.58 2.58h1.9a2.62 2.62 0 002.58-2.58v-2l-2.58 2.58H74l-2.58-2.58v2.54a2.61 2.61 0 002.58 2.56h2.1l-2.58-2.57v2.45a2.61 2.61 0 002.58 2.58h4.35l-2.57-2.58v4.52a2.62 2.62 0 002.57 2.58h9.27a2.62 2.62 0 002.58-2.58v-1.27l-2.58 2.58h6.42l-2.58-2.58v1.27a2.62 2.62 0 002.58 2.58h3.64a2.6 2.6 0 002.48-3.26l-1.66-5.15-2.48 3.26h8.39a2.61 2.61 0 002.58-2.58v-1.74a2.62 2.62 0 00-2.58-2.58h-2.21l2.57 2.58v-2.62l-2.57 2.58h11a2.61 2.61 0 002.57-2.58v-3.64l-2.57 2.58h7.92l-2.22-1.28c1 1.37 1.77 2.71 3.6 2.94a36.68 36.68 0 004.57 0 2.61 2.61 0 002.57-2.58v-1.26l-2.57 2.57h7.05a2.61 2.61 0 002.57-2.57v-9.9a2.61 2.61 0 00-2.57-2.58h-3.49l2.49 1.89-2.46-9.35a2.62 2.62 0 00-2.48-1.89h-12.44l2.58 2.58v-6l-1.89 2.48c2.85-.82 3.87-1.93 5.73-4.23 1.34-1.65.57-4.39-1.82-4.39h-3l2.56 2.55v-4.83a2.61 2.61 0 00-2.57-2.57h-3l2.57 2.57v-4.2a2.61 2.61 0 00-2.58-2.57h-1.18a2.54 2.54 0 00-2.24 1.27l-.55 1.19 2.22-1.27h-6.1a2.61 2.61 0 00-2.57 2.57v1.66l2.57-2.57h-1.66l2.48 1.89-.79-3.64a2.6 2.6 0 00-2.48-1.89h-8.48l2.58 2.57-.86-11a2.63 2.63 0 00-1.89-2.48l-15.86-3.34 1.89 2.48v-3.32a2.61 2.61 0 00-2.57-2.58h-4.75L78.4 62q-1.62-2.67-3.22-5.34c-1.25-2.07-3.89-1.35-4.71.61L67 65.67l2.48-1.89h-2.65l2.57 2.58v-2.54a2.61 2.61 0 00-2.57-2.57H61.6a2.62 2.62 0 00-2.6 2.57v7.29l2.58-2.58H57.4l2.6 2.58v-2.3a2.61 2.61 0 00-2.58-2.57h-4.77a2.62 2.62 0 00-2.58 2.57v2l2.58-2.57h-1.19L54 70.79v-4.67a2.62 2.62 0 00-2.58-2.58h-1.15l2.58 2.58v-2.7a2.61 2.61 0 00-2.58-2.57h-2.61a2.62 2.62 0 00-2.58 2.57v1.27l2.58-2.57h-1.43a2.61 2.61 0 00-2.57 2.57v1.67l2.57-2.58h-2.06l2.58 2.58v-1.67a2.61 2.61 0 00-2.58-2.57h-3.56A2.62 2.62 0 0038 64.69v2.06l2.58-2.57h-2.19L41 66.75v-1.46a2.61 2.61 0 00-2.58-2.58h-2.8A2.62 2.62 0 0033 65.29V69l2.58-2.58h-2L36.21 69v-3.75a2.61 2.61 0 00-2.57-2.58H31l2.49 1.89-1.09-3.64A2.63 2.63 0 0029.91 59h-9c-3.34 0-3.35 5.18-.03 5.18z"/></g><path class="cls-2" d="M111.22 49.21l-1.4-2.12h4.44l-3.04-6.14v-7.42h-.91l-1.53-3.77v-2.43l-.85-.97h-1.33l-.98-1.89.25-4.19-4.32-1.58-1.64-4.44V9.13H72.19v3.89h5.99v5.37h3.56l.94 3.14h1.85v1.61H68.36l-1.33-3.53-12.04-7.17H23.02V8.55H6.36v9.76h11.23l-5.84 7.46h1.7v1.82h-2.39v12.12h1.95v2.63h-1.38l1.46 4.87h6.08v-4.99h4.9v1.3h2.11v-1.18h3.48v1.58h-1.05v1.18h1.01v1.91h4.66v5.71h1.22v.97h-.85v2.27h-1.38v2.19h-.61v3.52h-2.67v4.91l1.9.97v3.4h8.63v-1.37h2.07v1.33h1.21v-1.17h1.14v1.17h1.66v-.97h1.82v-1.66h2.07v2.27h1.02v5.19h1.54v-2.27h4.74v2.27h4.13v-6.85h5.59v1.8h3.07l-.03-.14 2.59-5.39.29-6.29 3.2 9.19h4.56v3.04h15.86v-1.89l-2.67-3.65 1.64-1.7v-9.72h11.73v1.21h2.86l.06-1.58h.73l1.28-1.4h2.3v-3.16h-3.76z"/><path class="cls-2" d="M113.44 47.91L112 45.79l-2.22 3.87h4.44a2.6 2.6 0 002.22-3.87L115 42.72c-.34-.7-.65-1.45-1-2.11-.85-1.43.26-.48-.13.26.43-.82 0-3 0-4v-3.34a2.61 2.61 0 00-2.65-2.53h-.92l2.49 1.89c-.41-1-.85-2-1.23-3.05s-.11.26-.2-.67c0-.53.06-1.09 0-1.62-.32-2.67-2.3-3.73-4.76-3.73l2.22 1.28c-.29-.56-.64-1.11-.87-1.69.35.89 0 1.23.3.2a18.06 18.06 0 00.19-3.29 2.62 2.62 0 00-1.89-2.48l-4.31-1.58L104 18l-.83-2.21c-.11-.3-.92-2.83-.72-1.64a31.29 31.29 0 010-5 2.61 2.61 0 00-2.58-2.58H72.19a2.61 2.61 0 00-2.57 2.58V13a2.61 2.61 0 002.57 2.57h6L75.6 13v5.4a2.61 2.61 0 002.58 2.6h3.56l-2.49-1.89.94 3.13a2.64 2.64 0 002.49 1.89h1.85L82 21.53v1.61l2.57-2.58H68.36l2.49 1.89c-.73-1.91-1.14-4-2.84-5.25-2-1.48-4.41-2.63-6.57-3.92-1.73-1-3.79-2.79-5.77-3.33a14.12 14.12 0 00-3.5-.09H23l2.57 2.58V8.55A2.62 2.62 0 0023 6H6.36a2.61 2.61 0 00-2.57 2.55v9.76a2.61 2.61 0 002.57 2.58h11.23l-1.82-4.4L9.93 24c-1.31 1.67-.6 4.4 1.82 4.4h1.7l-2.57-2.58v1.82L13.45 25h-2.39a2.61 2.61 0 00-2.57 2.57v12.14a2.62 2.62 0 002.57 2.58H13l-2.58-2.58v2.63L13 39.77h-1.37A2.6 2.6 0 009.15 43l1.45 4.86a2.64 2.64 0 002.49 1.89h6.08a2.61 2.61 0 002.57-2.57v-5l-2.57 2.62h4.9l-2.58-2.58v1.3a2.62 2.62 0 002.58 2.58h2.11a2.61 2.61 0 002.57-2.58v-1.18l-2.57 2.58h3.48l-2.57-2.58v1.59l2.57-2.58h-1.05A2.62 2.62 0 0026 43.93v1.17a2.62 2.62 0 002.58 2.58h1l-2.53-2.58V47a2.61 2.61 0 002.57 2.57h4.66L31.71 47v5.71a2.61 2.61 0 002.57 2.57h1.22l-2.58-2.57v1l2.58-2.57h-.85a2.61 2.61 0 00-2.58 2.57V56l2.58-2.57h-1.38A2.62 2.62 0 0030.69 56v2.19l2.58-2.58h-.61a2.61 2.61 0 00-2.57 2.58v3.52l2.57-2.57H30a2.61 2.61 0 00-2.58 2.57v4.91a2.53 2.53 0 001.28 2.22l1.9 1-1.27-2.22V71a2.61 2.61 0 002.57 2.58h8.63A2.61 2.61 0 0043.1 71v-1.42l-2.58 2.57h2.07L40 69.58v1.33a2.61 2.61 0 002.58 2.58h1.22a2.61 2.61 0 002.57-2.58v-1.17l-2.57 2.57h1.13l-2.58-2.57v1.17a2.61 2.61 0 002.58 2.58h1.67a2.62 2.62 0 002.58-2.58v-1l-2.58 2.61h1.83A2.61 2.61 0 0051 69.94v-1.66l-2.57 2.58h2.06l-2.57-2.58v2.27a2.61 2.61 0 002.57 2.57h1l-2.57-2.57v5.19a2.61 2.61 0 002.57 2.57H53a2.61 2.61 0 002.58-2.57v-2.27L53 76h4.75l-2.58-2.57v2.27a2.61 2.61 0 002.58 2.57h4.13a2.61 2.61 0 002.57-2.57v-6.81l-2.57 2.57h5.59l-2.57-2.57v1.8a2.62 2.62 0 002.57 2.58h3.07A2.61 2.61 0 0073.06 70v-.15l-.26 2c.92-1.9 2.32-3.95 2.86-6s.27-4.76.37-7l-5.06.68 3.21 9.19a2.64 2.64 0 002.48 1.89h4.56l-2.58-2.57v3a2.61 2.61 0 002.58 2.57h15.83a2.61 2.61 0 002.58-2.57c0-3-1.27-4.44-3-6.83l-.4 3.12c1.84-1.91 2.4-3 2.4-5.58v-7.61L96 56.71h11.73l-2.57-2.57v1.21a2.61 2.61 0 002.57 2.58h2.86a2.62 2.62 0 002.57-2.58l.07-1.58-2.58 2.58c1.88 0 2.64-.85 3.83-2.15l-1.82.75H115a2.61 2.61 0 002.57-2.58v-3.16a2.61 2.61 0 00-2.57-2.57h-3.77c-3.32 0-3.32 5.15 0 5.15H115l-2.58-2.58v3.16L115 49.8c-2.57 0-3.65.22-5.41 2.15l1.82-.75h-.73a2.63 2.63 0 00-2.58 2.57l-.1 1.58 2.58-2.57h-2.86l2.58 2.57v-1.21a2.61 2.61 0 00-2.58-2.58H96a2.62 2.62 0 00-2.58 2.58v9.72L94.2 62l-1.64 1.7a2.59 2.59 0 00-.4 3.12 22.08 22.08 0 002.09 2.86c.82.81.09 1 .23-.31a15.88 15.88 0 000 1.69l2.57-2.58H81.19l2.57 2.58v-3a2.61 2.61 0 00-2.57-2.58h-4.56l2.48 1.89-3.2-9.19a2.59 2.59 0 00-5.06.69l-.17 3.81a7 7 0 00-.1 2.13c.24.5.84-1.26.12-.48-1.19 1.27-3 5.27-2.6 7l2.48-3.26h-3.07l2.58 2.57v-1.8a2.62 2.62 0 00-2.58-2.58h-5.59a2.62 2.62 0 00-2.58 2.58v6.85l2.58-2.58h-4.13l2.57 2.58v-2.22a2.61 2.61 0 00-2.57-2.58H53a2.61 2.61 0 00-2.57 2.58v2.27L53 73.16h-1.5l2.58 2.58v-5.19A2.62 2.62 0 0051.5 68h-1l2.58 2.58v-2.3a2.62 2.62 0 00-2.58-2.58h-2.07a2.61 2.61 0 00-2.58 2.58v1.66l2.58-2.57H46.6a2.61 2.61 0 00-2.6 2.57v1l2.57-2.57h-1.63l2.58 2.57v-1.2a2.62 2.62 0 00-2.58-2.58h-1.13a2.61 2.61 0 00-2.58 2.58v1.17l2.58-2.57h-1.22l2.58 2.57v-1.33A2.61 2.61 0 0042.59 67h-2.07A2.61 2.61 0 0038 69.58V71l2.57-2.57h-8.68L34.47 71v-3.4a2.53 2.53 0 00-1.28-2.22l-1.9-1 1.27 2.23v-4.94L30 64.25h2.67a2.62 2.62 0 002.58-2.58v-3.52l-2.58 2.57h.61a2.61 2.61 0 002.57-2.57V56l-2.57 2.58h1.38A2.61 2.61 0 0037.22 56v-2.31l-2.57 2.58h.85a2.61 2.61 0 002.57-2.58v-1a2.62 2.62 0 00-2.57-2.58h-1.22l2.58 2.58V47a2.61 2.61 0 00-2.58-2.58h-4.66L32.2 47v-1.9a2.62 2.62 0 00-2.58-2.58h-1l2.57 2.58v-1.17l-2.58 2.57h1.05a2.62 2.62 0 002.58-2.57v-1.59a2.61 2.61 0 00-2.58-2.57h-3.48a2.62 2.62 0 00-2.58 2.57v1.18l2.58-2.58h-2.11l2.58 2.58v-1.3a2.61 2.61 0 00-2.58-2.57h-4.9a2.61 2.61 0 00-2.58 2.57v5l2.58-2.58h-6.08l2.48 1.89-1.46-4.86-2.48 3.26H13a2.61 2.61 0 002.57-2.58v-2.64A2.61 2.61 0 0013 37.14h-1.94l2.58 2.57V27.59l-2.58 2.58h2.39A2.61 2.61 0 0016 27.59v-1.82a2.61 2.61 0 00-2.58-2.57h-1.7l1.82 4.39 5.84-7.45c1.3-1.67.6-4.4-1.82-4.4H6.36l2.58 2.57V8.55l-2.58 2.57H23l-2.56-2.57v3.89A2.61 2.61 0 0023 15h25.53c1.76 0 3.58.15 5.33 0a6.23 6.23 0 001.06 0c-.21.5-2.05-1-.22.25 3.53 2.39 7.37 4.39 11 6.57l-1.16-1.52 1.34 3.52a2.66 2.66 0 002.48 1.89h16.17a2.62 2.62 0 002.58-2.57v-1.61A2.61 2.61 0 0084.53 19h-1.85l2.48 1.89-.94-3.13a2.63 2.63 0 00-2.48-1.89h-3.56l2.58 2.58V13a2.61 2.61 0 00-2.58-2.58h-6L74.77 13V9.13l-2.58 2.57h27.72l-2.57-2.57c0 3.24 0 5.6 1.13 8.63.58 1.57.88 2.71 2.5 3.46 1.34.62 2.82 1 4.21 1.54l-1.89-2.48c-.17 3-.28 4.73 1.08 7.38a2.57 2.57 0 002.23 1.27h1.33l-1.82-.75.85 1-.75-1.82a16.48 16.48 0 001.61 6.89 2.69 2.69 0 002.48 1.89h.92l-2.58-2.58c0 2.49-.42 5.32 0 7.76s2.25 4.9 3.34 7.1l2.23-3.88h-4.44a2.6 2.6 0 00-2.23 3.88l1.4 2.12c1.87 2.73 6.33.15 4.5-2.63z"/></svg>